<?xml version="1.0" standalone="no"?>
<svg version="1.0" xmlns="http://www.w3.org/2000/svg"
 width="200.000000pt" height="200.000000pt" viewBox="20 0 200.000000 200.000000"
 preserveAspectRatio="xMidYMid meet">

<g transform="translate(0.000000,200.000000) scale(0.100000,-0.100000)"
fill="#000000" stroke="none">
<path d="M485 1951 c-6 -5 -26 -18 -45 -28 l-35 -20 0 -188 0 -188 38 -19 37
-20 0 -208 0 -207 -40 -27 -40 -26 0 -184 0 -184 112 -64 c61 -34 128 -73 150
-85 46 -28 67 -29 107 -6 30 17 32 17 64 -1 85 -49 167 -96 192 -110 11 -7 46
-27 78 -45 l57 -33 0 -48 c0 -43 3 -50 28 -63 15 -7 44 -23 65 -35 59 -35 104
-60 145 -83 20 -11 41 -25 47 -30 16 -16 59 -8 105 20 l45 27 3 626 2 626
-111 64 c-62 34 -130 74 -153 87 -23 13 -56 32 -73 42 -18 11 -48 27 -65 38
-18 10 -105 60 -193 111 -88 51 -175 101 -192 111 -18 11 -49 28 -68 39 -87
50 -103 59 -153 89 -53 31 -90 39 -107 22z m78 -65 c23 -13 59 -33 80 -45 20
-11 54 -30 75 -42 20 -12 40 -23 44 -25 13 -8 -3 -32 -24 -37 -20 -6 -42 4
-148 67 -25 14 -62 34 -82 43 -44 21 -46 26 -16 47 28 20 21 20 71 -8z m-68
-50 c11 -7 37 -23 58 -35 20 -11 53 -30 73 -41 76 -44 85 -52 82 -79 -2 -20
-8 -25 -23 -23 -11 2 -22 7 -25 10 -3 4 -16 13 -29 20 -128 73 -121 75 -121
-48 0 -90 -2 -100 -18 -100 -37 0 -42 19 -42 167 0 151 3 159 45 129z m445
-167 c120 -68 165 -94 233 -134 23 -14 50 -28 60 -32 24 -8 21 -19 -13 -43
-25 -18 -30 -28 -30 -63 0 -49 8 -63 41 -81 13 -7 40 -22 60 -33 20 -12 47
-27 60 -35 37 -20 39 -26 39 -138 0 -58 4 -110 8 -115 4 -6 24 -19 44 -30 31
-16 41 -17 63 -7 14 7 30 12 35 12 6 0 10 -96 10 -245 0 -236 -1 -245 -19
-245 -11 0 -23 5 -26 10 -10 16 -33 11 -75 -16 -38 -26 -40 -29 -40 -80 0 -61
-15 -69 -60 -34 -31 24 -60 25 -99 3 -29 -17 -31 -17 -73 4 -24 13 -63 35 -88
49 -45 27 -79 46 -144 83 -109 62 -115 68 -118 117 -3 41 -7 50 -33 64 -16 10
-46 26 -66 38 -20 11 -47 26 -60 34 -37 20 -39 26 -39 135 0 107 -5 133 -24
133 -7 0 -22 9 -34 20 -21 20 -22 27 -22 240 l0 220 40 26 c38 26 40 29 40 80
0 38 4 54 13 54 18 0 67 -24 67 -32 0 -5 12 -8 27 -8 37 0 93 45 93 76 0 33
-16 30 -23 -5 -6 -26 -37 -47 -51 -33 -13 13 -4 51 15 63 36 24 74 14 189 -52z
m-366 25 c18 -18 22 -104 6 -135 -6 -10 -20 -19 -30 -19 -18 0 -20 7 -20 85 0
90 9 104 44 69z m765 -255 c176 -99 192 -110 180 -125 -17 -21 -53 -17 -101
11 -24 14 -51 28 -60 32 -10 3 -18 8 -18 12 0 4 -16 13 -35 21 -19 8 -35 17
-35 22 0 4 -7 8 -15 8 -21 0 -19 38 3 43 9 3 19 5 21 6 2 0 29 -13 60 -30z
m-84 -43 c11 -7 37 -23 58 -35 177 -100 157 -71 157 -232 0 -145 -6 -165 -41
-133 -16 15 -19 31 -19 124 0 118 0 119 -72 159 -130 72 -128 71 -128 109 0
25 17 28 45 8z m293 -243 c2 -128 1 -141 -17 -157 -35 -32 -41 -12 -41 131 0
116 3 139 18 154 9 10 22 17 27 15 6 -2 11 -60 13 -143z m-1010 -129 c12 -4
22 -14 22 -24 0 -20 -29 -31 -60 -23 -22 6 -27 38 -7 46 17 7 19 7 45 1z m-44
-70 c13 -12 16 -39 16 -123 0 -117 -1 -114 61 -149 72 -40 84 -47 89 -52 3 -3
14 -10 25 -16 22 -12 32 -51 17 -66 -5 -5 -34 6 -73 30 -35 21 -90 53 -121 72
l-58 34 0 143 c0 117 3 143 14 143 8 0 22 -7 30 -16z m96 -76 c0 -100 -4 -114
-35 -120 -19 -3 -20 3 -23 88 -2 74 0 95 13 108 36 36 45 21 45 -76z m63 -152
c23 -13 57 -32 76 -43 38 -21 52 -43 27 -43 -9 0 -16 -4 -16 -10 0 -5 -9 -10
-20 -10 -11 0 -20 4 -20 9 0 5 -8 11 -17 15 -10 3 -32 14 -50 24 -86 51 -100
66 -65 75 33 9 43 7 85 -17z m137 -129 c0 -27 -33 -62 -49 -52 -15 8 -14 48 1
63 21 21 48 14 48 -11z m713 -129 c12 -7 24 -14 26 -15 12 -7 -26 -33 -49 -33
-23 0 -61 26 -49 33 2 1 13 7 24 14 25 15 22 15 48 1z m-50 -66 c13 -14 16
-46 19 -155 2 -85 -1 -138 -7 -140 -5 -2 -25 5 -42 15 -18 10 -49 27 -68 38
-19 11 -50 29 -69 39 -70 40 -76 46 -76 73 0 34 20 37 58 9 52 -36 123 -72
132 -66 6 3 10 48 10 99 0 110 8 127 43 88z m97 -126 c0 -137 -1 -146 -22
-160 -12 -8 -25 -13 -30 -10 -4 3 -8 66 -8 141 0 113 3 140 17 155 37 42 43
26 43 -126z m-237 72 c12 -7 24 -15 27 -18 3 -3 14 -10 25 -16 22 -12 32 -51
17 -66 -7 -7 -25 0 -55 21 -25 17 -49 31 -54 31 -4 0 -17 7 -27 15 -20 15 -20
15 0 30 24 18 38 18 67 3z"/>
<path d="M855 1390 c-22 -16 -45 -29 -51 -30 -5 0 -20 -9 -32 -20 -22 -20 -22
-26 -22 -295 l0 -274 33 -25 c43 -33 71 -33 114 0 23 18 33 33 33 53 0 15 2
30 5 33 7 7 55 -14 55 -24 0 -5 5 -8 11 -8 6 0 24 -9 40 -21 28 -20 29 -23 29
-109 0 -88 0 -89 31 -111 40 -28 78 -28 118 0 l31 22 0 277 c0 275 0 277 -25
326 -36 71 -67 108 -111 132 -60 32 -89 48 -94 55 -3 3 -20 12 -37 20 -18 8
-33 17 -33 21 0 19 -58 5 -95 -22z m91 1 c5 -5 26 -19 47 -30 20 -12 54 -30
75 -42 71 -40 78 -54 33 -64 -30 -6 -42 -2 -161 69 -81 47 -77 43 -55 60 23
17 47 20 61 7z m29 -111 c22 -13 53 -30 68 -39 26 -14 47 -45 94 -131 10 -19
13 -86 13 -277 0 -162 4 -253 10 -253 6 0 10 90 10 249 0 214 2 252 16 265 8
9 22 16 30 16 12 0 14 -41 14 -255 0 -240 -1 -256 -19 -272 -26 -22 -78 -22
-102 0 -16 15 -19 32 -19 99 0 83 -14 118 -47 118 -7 0 -13 4 -13 8 0 5 -16
14 -35 22 -19 8 -35 17 -35 21 0 4 -8 9 -17 12 -10 4 -37 18 -61 32 -50 29
-50 29 -54 -70 -3 -64 -5 -70 -23 -67 -11 2 -23 9 -27 15 -4 7 -8 130 -8 274
l0 262 32 25 32 25 51 -28 c27 -15 68 -38 90 -51z m203 -55 c12 -19 22 -39 22
-45 0 -5 5 -10 10 -10 19 0 10 -30 -15 -46 -29 -19 -42 -10 -66 44 -7 17 -17
32 -21 32 -5 0 -8 8 -8 18 0 14 26 35 50 41 3 0 15 -15 28 -34z m-286 -362
c18 -16 24 -68 10 -90 -4 -6 -16 -13 -27 -15 -17 -3 -20 3 -23 46 -5 75 6 90
40 59z"/>
<path d="M847 1242 c-14 -15 -17 -40 -17 -128 0 -60 4 -113 8 -119 4 -5 18
-16 31 -23 13 -8 39 -22 57 -33 19 -10 51 -28 72 -40 20 -11 41 -25 46 -30 6
-5 18 -9 29 -9 17 0 18 8 15 130 -2 72 -7 134 -13 138 -5 4 -15 15 -20 26 -6
10 -31 30 -55 44 -25 13 -60 33 -78 43 -41 24 -55 24 -75 1z m57 -18 c3 -9 6
-49 6 -89 0 -75 -13 -105 -46 -105 -11 0 -14 19 -14 89 0 102 5 121 30 121 10
0 21 -7 24 -16z m95 -50 c48 -31 71 -77 71 -137 0 -56 -11 -65 -49 -38 -16 12
-33 21 -38 21 -5 0 -19 9 -31 20 -19 18 -22 32 -22 90 0 81 7 85 69 44z m-17
-175 c14 -11 30 -19 35 -19 19 0 53 -42 53 -65 0 -31 -12 -31 -59 -3 -67 42
-96 59 -113 64 -10 4 -18 14 -18 24 0 34 53 33 102 -1z"/>
</g>
</svg>
